<svg width="16" height="17" viewBox="0 0 16 17" fill="none" xmlns="http://www.w3.org/2000/svg">
<path d="M7.33331 0.861674C7.55331 0.842341 7.77531 0.833008 7.99998 0.833008C12.234 0.833008 15.6666 4.26567 15.6666 8.49967C15.6666 8.72434 15.6573 8.94634 15.638 9.16634H14.634C14.2993 12.535 11.4566 15.1663 7.99998 15.1663C4.31798 15.1663 1.33331 12.1817 1.33331 8.49967C1.33331 5.04301 3.96465 2.20034 7.33331 1.86634V0.861674ZM7.33331 9.16634V3.20767C5.98845 3.3788 4.75922 4.05559 3.89544 5.10049C3.03166 6.14539 2.59817 7.47999 2.68306 8.83303C2.76795 10.1861 3.36487 11.456 4.35248 12.3848C5.34009 13.3135 6.64428 13.8313 7.99998 13.833C9.29905 13.833 10.5535 13.3589 11.5278 12.4997C12.5022 11.6405 13.1295 10.4552 13.292 9.16634H7.33331ZM14.2986 7.83301C14.1458 6.39161 13.5033 5.0462 12.4784 4.02127C11.4535 2.99633 10.108 2.35385 8.66665 2.20101V7.83301H14.2986Z" fill="#9ACCEE"/>
</svg>
