<svg width="16" height="17" viewBox="0 0 16 17" fill="none" xmlns="http://www.w3.org/2000/svg">
<path d="M8.27598 3.83333H14C14.1768 3.83333 14.3464 3.90357 14.4714 4.0286C14.5964 4.15362 14.6666 4.32319 14.6666 4.5V13.8333C14.6666 14.0101 14.5964 14.1797 14.4714 14.3047C14.3464 14.4298 14.1768 14.5 14 14.5H1.99998C1.82317 14.5 1.6536 14.4298 1.52858 14.3047C1.40355 14.1797 1.33331 14.0101 1.33331 13.8333V3.16667C1.33331 2.98986 1.40355 2.82029 1.52858 2.69526C1.6536 2.57024 1.82317 2.5 1.99998 2.5H6.94265L8.27598 3.83333ZM2.66665 5.16667V13.1667H13.3333V5.16667H2.66665Z" fill="#9ACCEE"/>
</svg>
