<svg width="19" height="17" viewBox="0 0 19 17" fill="none" xmlns="http://www.w3.org/2000/svg">
<path d="M10.525 15.7715C13.7041 15.7715 15.5724 13.822 15.5724 10.5349L15.5724 9.16884C15.5724 7.91657 14.9321 7.15528 14.2164 7.15528C14.0507 7.15528 13.9678 7.23354 13.9678 7.38296L13.9678 7.98773C13.9678 8.27233 13.8096 8.41464 13.6288 8.41464C13.4329 8.41464 13.2823 8.27233 13.2823 7.98773L13.2823 7.58929C13.2823 6.85644 12.7775 6.37264 12.107 6.37264C11.7982 6.37264 11.6626 6.49358 11.6626 6.7355L11.6626 7.56085C11.6626 7.84545 11.5119 7.98773 11.3311 7.98773C11.1352 7.98773 10.977 7.84545 10.977 7.56085L10.977 6.79955C10.977 5.9742 10.4647 5.58287 9.81686 5.58287C9.52305 5.58287 9.37239 5.71094 9.37239 5.94573L9.37239 7.56085C9.37239 7.84545 9.21419 7.98773 9.03338 7.98773C8.8375 7.98773 8.68685 7.84545 8.68685 7.56085L8.68685 2.09653C8.68685 1.57008 8.31769 1.22853 7.85062 1.22853C7.34588 1.22853 6.9918 1.57008 6.9918 2.09653L6.9918 10.2076C6.9918 10.3926 6.87126 10.4922 6.75073 10.4922C6.62267 10.4922 6.53225 10.4139 6.44186 10.2361L5.15364 7.46122C4.92761 6.98452 4.46807 6.84223 4.06882 6.99165C3.68462 7.13394 3.42847 7.56795 3.63939 8.08733L5.0783 11.6875C6.27614 14.6971 8.09922 15.7715 10.525 15.7715Z" fill="#37C989"/>
</svg>
