<svg width="20" height="22" viewBox="0 0 20 22" fill="none" xmlns="http://www.w3.org/2000/svg">
<path d="M4.10801 6.62924C4.45617 3.28051 7.10467 0.74707 10.2573 0.74707C13.41 0.74707 16.0585 3.28051 16.4067 6.62924L16.6856 9.31166C16.6892 9.34587 16.6909 9.36303 16.6927 9.37996C16.8356 10.7099 17.2406 11.9926 17.8813 13.1431C17.8894 13.1578 17.8977 13.1724 17.9142 13.2019L18.5545 14.3423C19.1354 15.3772 19.4259 15.8945 19.3632 16.3194C19.3215 16.6019 19.1854 16.8589 18.9801 17.0425C18.6716 17.3185 18.1069 17.3185 16.9778 17.3185H3.53694C2.40773 17.3185 1.84313 17.3185 1.5346 17.0425C1.32929 16.8589 1.19319 16.6019 1.15146 16.3194C1.08875 15.8945 1.37924 15.3772 1.96021 14.3423L2.60041 13.2019C2.61698 13.1724 2.62527 13.1578 2.63341 13.1431C3.27406 11.9926 3.67916 10.7099 3.82198 9.37996C3.8238 9.36303 3.82557 9.34587 3.82913 9.31166L4.10801 6.62924Z" stroke="#656565" stroke-width="1.20833"/>
<path d="M6.94287 18.3711C7.13837 19.0842 7.56913 19.7143 8.16835 20.1637C8.76755 20.6132 9.50183 20.8568 10.2571 20.8568C11.0125 20.8568 11.7467 20.6132 12.3459 20.1637C12.9451 19.7143 13.376 19.0842 13.5714 18.3711" stroke="#656565" stroke-width="1.20833" stroke-linecap="round"/>
</svg>
