<svg width="21" height="19" viewBox="0 0 21 19" fill="none" xmlns="http://www.w3.org/2000/svg">
<path d="M20.8802 17.3836L11.266 0.731293C10.9256 0.141652 10.0745 0.141652 9.73399 0.731293L0.119838 17.3836C-0.220633 17.9732 0.204905 18.7103 0.885764 18.7103H20.1141C20.795 18.7103 21.2206 17.9733 20.8802 17.3836ZM11.3628 16.3754C11.3628 16.4853 10.9765 16.5744 10.5001 16.5744C10.0235 16.5744 9.63723 16.4853 9.63723 16.3754V14.995C9.63723 14.8851 10.0235 14.7959 10.5001 14.7959C10.9765 14.7959 11.3628 14.8851 11.3628 14.995V16.3754ZM11.219 13.1546C11.2193 13.1587 11.2217 13.1626 11.2217 13.1669C11.2217 13.3451 10.8985 13.4895 10.5 13.4895C10.1013 13.4895 9.77832 13.3451 9.77832 13.1669C9.77832 13.1627 9.78062 13.1588 9.78103 13.1546L9.33248 7.3919C9.33248 7.21373 9.85519 7.06928 10.5 7.06928C11.1448 7.06928 11.6674 7.21373 11.6674 7.3919L11.219 13.1546Z" fill="#FFC94C"/>
</svg>
