<svg width="768" height="182" viewBox="0 0 768 182" fill="none" xmlns="http://www.w3.org/2000/svg">
<path d="M279.017 72.4176C278.294 69.9042 277.278 67.6834 275.97 65.7552C274.661 63.7926 273.06 62.1399 271.167 60.7971C269.307 59.4199 267.173 58.3697 264.762 57.6467C262.387 56.9236 259.753 56.5621 256.86 56.5621C251.455 56.5621 246.703 57.9049 242.606 60.5905C238.543 63.2762 235.375 67.1841 233.103 72.3143C230.83 77.4102 229.694 83.6422 229.694 91.0105C229.694 98.3787 230.813 104.645 233.051 109.81C235.289 114.975 238.457 118.917 242.554 121.637C246.652 124.323 251.489 125.665 257.067 125.665C262.128 125.665 266.449 124.77 270.03 122.98C273.646 121.155 276.4 118.59 278.294 115.284C280.222 111.979 281.186 108.071 281.186 103.561L285.731 104.232H258.461V87.3952H302.723V100.72C302.723 110.016 300.76 118.004 296.835 124.684C292.91 131.329 287.504 136.46 280.618 140.075C273.732 143.656 265.847 145.446 256.964 145.446C247.048 145.446 238.336 143.26 230.83 138.887C223.324 134.48 217.471 128.231 213.271 120.139C209.104 112.013 207.021 102.373 207.021 91.217C207.021 82.6437 208.261 75 210.74 68.2859C213.253 61.5374 216.765 55.8218 221.276 51.1392C225.786 46.4566 231.037 42.8929 237.028 40.4483C243.019 38.0037 249.509 36.7814 256.499 36.7814C262.49 36.7814 268.068 37.6594 273.232 39.4154C278.397 41.1369 282.976 43.5816 286.97 46.7492C290.999 49.9169 294.287 53.6871 296.835 58.0599C299.383 62.3982 301.018 67.1841 301.741 72.4176H279.017ZM355.26 145.549C347.1 145.549 340.076 143.897 334.188 140.591C328.335 137.251 323.825 132.534 320.657 126.44C317.489 120.311 315.906 113.064 315.906 104.697C315.906 96.5367 317.489 89.375 320.657 83.2118C323.825 77.0486 328.284 72.2455 334.034 68.8024C339.818 65.3593 346.601 63.6377 354.382 63.6377C359.616 63.6377 364.488 64.4813 368.998 66.1684C373.543 67.8211 377.503 70.3173 380.877 73.6572C384.286 76.997 386.937 81.1976 388.831 86.259C390.724 91.2859 391.671 97.1736 391.671 103.922V109.965H324.685V96.3301H370.961C370.961 93.1624 370.272 90.3563 368.895 87.9117C367.518 85.467 365.607 83.5561 363.162 82.1789C360.752 80.7672 357.946 80.0614 354.744 80.0614C351.404 80.0614 348.443 80.8361 345.861 82.3855C343.313 83.9004 341.316 85.9491 339.87 88.5314C338.424 91.0793 337.683 93.9199 337.649 97.0531V110.016C337.649 113.942 338.372 117.333 339.818 120.191C341.299 123.049 343.382 125.252 346.067 126.802C348.753 128.351 351.938 129.126 355.622 129.126C358.066 129.126 360.305 128.781 362.336 128.093C364.367 127.404 366.106 126.371 367.552 124.994C368.998 123.617 370.1 121.93 370.858 119.933L391.206 121.275C390.174 126.165 388.056 130.434 384.854 134.084C381.686 137.699 377.589 140.522 372.562 142.554C367.569 144.551 361.802 145.549 355.26 145.549ZM441.872 145.549C433.849 145.549 426.912 143.845 421.058 140.436C415.239 136.993 410.746 132.207 407.578 126.079C404.411 119.915 402.827 112.771 402.827 104.645C402.827 96.4506 404.411 89.2889 407.578 83.1602C410.746 76.997 415.239 72.2111 421.058 68.8024C426.912 65.3593 433.849 63.6377 441.872 63.6377C449.894 63.6377 456.815 65.3593 462.634 68.8024C468.487 72.2111 472.998 76.997 476.165 83.1602C479.333 89.2889 480.917 96.4506 480.917 104.645C480.917 112.771 479.333 119.915 476.165 126.079C472.998 132.207 468.487 136.993 462.634 140.436C456.815 143.845 449.894 145.549 441.872 145.549ZM441.975 128.506C445.625 128.506 448.672 127.473 451.117 125.407C453.561 123.307 455.403 120.449 456.643 116.834C457.917 113.219 458.554 109.104 458.554 104.49C458.554 99.8765 457.917 95.762 456.643 92.1467C455.403 88.5314 453.561 85.6736 451.117 83.5733C448.672 81.473 445.625 80.4229 441.975 80.4229C438.291 80.4229 435.192 81.473 432.679 83.5733C430.2 85.6736 428.323 88.5314 427.049 92.1467C425.81 95.762 425.19 99.8765 425.19 104.49C425.19 109.104 425.81 113.219 427.049 116.834C428.323 120.449 430.2 123.307 432.679 125.407C435.192 127.473 438.291 128.506 441.975 128.506ZM533.132 144H495.636V38.2275H533.442C544.081 38.2275 553.239 40.345 560.918 44.5801C568.596 48.7807 574.501 54.8233 578.632 62.7081C582.799 70.5928 584.882 80.0269 584.882 91.0105C584.882 102.028 582.799 111.497 578.632 119.416C574.501 127.335 568.561 133.412 560.814 137.647C553.102 141.882 543.874 144 533.132 144ZM517.999 124.839H532.202C538.813 124.839 544.373 123.668 548.884 121.327C553.429 118.951 556.837 115.284 559.11 110.326C561.417 105.334 562.57 98.8952 562.57 91.0105C562.57 83.1946 561.417 76.8076 559.11 71.8495C556.837 66.8914 553.446 63.2417 548.936 60.9004C544.425 58.5591 538.864 57.3885 532.254 57.3885H517.999V124.839ZM636.877 145.549C628.855 145.549 621.917 143.845 616.063 140.436C610.244 136.993 605.751 132.207 602.584 126.079C599.416 119.915 597.832 112.771 597.832 104.645C597.832 96.4506 599.416 89.2889 602.584 83.1602C605.751 76.997 610.244 72.2111 616.063 68.8024C621.917 65.3593 628.855 63.6377 636.877 63.6377C644.899 63.6377 651.82 65.3593 657.639 68.8024C663.492 72.2111 668.003 76.997 671.17 83.1602C674.338 89.2889 675.922 96.4506 675.922 104.645C675.922 112.771 674.338 119.915 671.17 126.079C668.003 132.207 663.492 136.993 657.639 140.436C651.82 143.845 644.899 145.549 636.877 145.549ZM636.98 128.506C640.63 128.506 643.677 127.473 646.122 125.407C648.566 123.307 650.408 120.449 651.648 116.834C652.922 113.219 653.559 109.104 653.559 104.49C653.559 99.8765 652.922 95.762 651.648 92.1467C650.408 88.5314 648.566 85.6736 646.122 83.5733C643.677 81.473 640.63 80.4229 636.98 80.4229C633.296 80.4229 630.197 81.473 627.684 83.5733C625.205 85.6736 623.328 88.5314 622.054 92.1467C620.815 95.762 620.195 99.8765 620.195 104.49C620.195 109.104 620.815 113.219 622.054 116.834C623.328 120.449 625.205 123.307 627.684 125.407C630.197 127.473 633.296 128.506 636.98 128.506ZM726.071 145.549C717.945 145.549 710.956 143.828 705.102 140.385C699.283 136.907 694.807 132.087 691.674 125.924C688.575 119.76 687.026 112.668 687.026 104.645C687.026 96.5194 688.593 89.3922 691.726 83.2635C694.893 77.1003 699.387 72.2971 705.206 68.854C711.024 65.3765 717.945 63.6377 725.968 63.6377C732.888 63.6377 738.948 64.8944 744.147 67.4079C749.346 69.9214 753.461 73.4506 756.491 77.9955C759.521 82.5404 761.191 87.8772 761.501 94.006H740.739C740.153 90.0464 738.604 86.8615 736.09 84.4513C733.611 82.0067 730.358 80.7844 726.329 80.7844C722.92 80.7844 719.942 81.7141 717.394 83.5733C714.881 85.3982 712.918 88.0666 711.507 91.5786C710.095 95.0906 709.389 99.3428 709.389 104.335C709.389 109.397 710.078 113.701 711.455 117.247C712.867 120.793 714.846 123.496 717.394 125.356C719.942 127.215 722.92 128.144 726.329 128.144C728.843 128.144 731.098 127.628 733.095 126.595C735.126 125.562 736.796 124.064 738.105 122.102C739.447 120.105 740.325 117.712 740.739 114.923H761.501C761.156 120.983 759.504 126.32 756.542 130.933C753.616 135.513 749.57 139.094 744.405 141.676C739.241 144.258 733.129 145.549 726.071 145.549Z" fill="#3D3D3D"/>
<path d="M57.7402 5.96702C76.6777 -1.21081 98.2115 0.940655 106.611 2.91331C126.465 7.495 139.574 17.6765 143.646 22.1946C145.632 27.5394 143.329 31.1661 141.929 32.3118L134.865 38.4211C128.184 42.4299 122.011 42.7483 119.02 41.4758L114.629 38.4211C109.792 35.6212 95.3476 30.8998 76.2577 34.4123C57.1674 37.925 44.3771 54.7119 40.3681 62.6662C34.8701 71.5242 33.6228 84.1748 33.6865 89.3928C33.3811 96.7232 35.3402 104.664 36.3583 107.719C43.2309 124.06 53.4766 133.618 57.7402 136.355C74.5397 149.489 92.994 147.3 100.121 144.564C120.127 138.455 127.165 121.019 128.184 113.065C128.184 108.636 124.874 107.655 123.22 107.719H91.912C77.7088 106.65 74.7941 96.8373 75.1122 92.0647C74.807 80.1526 86.185 76.4113 91.912 76.0295H128.184V62.6662C128.565 59.6119 129.711 58.0841 131.047 56.9387C132.383 55.7933 133.529 55.03 136.393 54.8391C138.683 54.6865 141.674 56.1751 142.883 56.9387L176.673 84.2375C180.644 88.361 179.855 93.4648 178.964 95.5012C165.372 133.376 141.484 157.226 131.238 164.417C113.217 179.231 87.0757 180.39 76.2577 179.117C45.255 173.467 23.886 151.945 17.0771 141.891C-5.22007 112.721 -0.994597 77.1751 3.9052 63.0481C9.09778 45.9431 20.3226 31.9937 25.2861 27.1575C35.9767 15.0924 51.3767 8.00333 57.7402 5.96702Z" fill="url(#paint0_linear_363_93)"/>
<path d="M57.7392 5.96684C76.6769 -1.21114 98.2115 0.940453 106.611 2.91313C126.465 7.49485 139.574 17.6763 143.646 22.1944C145.631 27.5389 143.329 31.1657 141.929 32.3116L131.047 39.9483C124.175 42.2391 122.01 42.7483 119.019 41.4756L114.629 38.4209C109.793 35.621 95.3479 30.8997 76.2578 34.4121C57.1674 37.9248 44.3761 54.7117 40.3671 62.6661C34.8693 71.524 33.6219 84.1747 33.6855 89.3926C33.3802 96.7231 35.3402 104.664 36.3584 107.719C43.2307 124.06 53.4755 133.618 57.7392 136.355C74.5386 149.489 92.9929 147.3 100.12 144.564C100.215 144.535 100.308 144.503 100.402 144.474L99.9296 145.136C83.5756 153.026 50.6766 162.509 11.3505 130.628L8.54195 128.007C-3.89749 102.242 -0.237069 74.9908 3.90523 63.0479C9.09781 45.9429 20.3226 31.9935 25.2861 27.1573C35.9765 15.0925 51.3756 8.00324 57.7392 5.96684Z" fill="url(#paint1_linear_363_93)"/>
<defs>
<linearGradient id="paint0_linear_363_93" x1="149.12" y1="135.439" x2="90.0027" y2="90.1559" gradientUnits="userSpaceOnUse">
<stop offset="0.118397" stop-color="#00A8ED"/>
<stop offset="0.677183" stop-color="#00DBF3"/>
</linearGradient>
<linearGradient id="paint1_linear_363_93" x1="72.2098" y1="1" x2="72.2098" y2="152.857" gradientUnits="userSpaceOnUse">
<stop stop-color="#00EEFF"/>
<stop offset="1" stop-color="#00ADE5"/>
</linearGradient>
</defs>
</svg>
