<svg width="812" height="193" viewBox="0 0 812 193" fill="none" xmlns="http://www.w3.org/2000/svg">
<path d="M294.968 76.3254C294.204 73.6682 293.13 71.3204 291.747 69.2821C290.364 67.2073 288.671 65.4601 286.669 64.0405C284.704 62.5846 282.447 61.4744 279.899 60.71C277.387 59.9456 274.603 59.5634 271.545 59.5634C265.83 59.5634 260.807 60.983 256.476 63.8221C252.181 66.6613 248.832 70.7926 246.43 76.2162C244.027 81.6033 242.826 88.1916 242.826 95.9811C242.826 103.771 244.009 110.395 246.375 115.855C248.741 121.315 252.09 125.483 256.421 128.359C260.753 131.198 265.867 132.617 271.764 132.617C277.114 132.617 281.682 131.671 285.468 129.778C289.29 127.849 292.202 125.137 294.204 121.643C296.242 118.148 297.261 114.017 297.261 109.249L302.066 109.959H273.238V92.1592H320.029V106.246C320.029 116.074 317.955 124.518 313.805 131.58C309.655 138.605 303.941 144.029 296.661 147.85C289.381 151.636 281.045 153.529 271.654 153.529C261.171 153.529 251.962 151.217 244.027 146.595C236.092 141.936 229.904 135.329 225.463 126.775C221.059 118.185 218.857 107.993 218.857 96.1995C218.857 87.136 220.167 79.0553 222.788 71.9574C225.445 64.8231 229.158 58.7808 233.926 53.8305C238.695 48.8801 244.246 45.1128 250.579 42.5284C256.913 39.944 263.774 38.6519 271.163 38.6519C277.497 38.6519 283.393 39.58 288.853 41.4364C294.313 43.2564 299.154 45.8408 303.377 49.1895C307.635 52.5383 311.111 56.524 313.805 61.1468C316.499 65.7331 318.228 70.7926 318.992 76.3254H294.968ZM375.57 153.638C366.944 153.638 359.518 151.891 353.294 148.396C347.106 144.866 342.338 139.879 338.989 133.436C335.64 126.957 333.966 119.295 333.966 110.45C333.966 101.823 335.64 94.2521 338.989 87.7366C342.338 81.2211 347.051 76.1434 353.13 72.5034C359.245 68.8635 366.416 67.0435 374.642 67.0435C380.175 67.0435 385.326 67.9353 390.094 69.7189C394.899 71.466 399.085 74.105 402.652 77.6358C406.255 81.1665 409.058 85.6073 411.06 90.958C413.062 96.2723 414.063 102.497 414.063 109.631V116.019H343.248V101.605H392.169C392.169 98.2561 391.441 95.2895 389.985 92.7052C388.529 90.1208 386.509 88.1006 383.924 86.6446C381.376 85.1523 378.41 84.4061 375.024 84.4061C371.494 84.4061 368.363 85.2251 365.633 86.863C362.94 88.4646 360.829 90.6304 359.3 93.3604C357.771 96.0539 356.989 99.0569 356.952 102.369V116.074C356.952 120.223 357.717 123.809 359.245 126.83C360.81 129.851 363.013 132.18 365.852 133.818C368.691 135.456 372.058 136.275 375.953 136.275C378.537 136.275 380.903 135.911 383.051 135.183C385.198 134.455 387.036 133.363 388.565 131.907C390.094 130.451 391.259 128.668 392.059 126.557L413.572 127.976C412.48 133.145 410.241 137.659 406.856 141.517C403.507 145.339 399.176 148.324 393.861 150.471C388.583 152.582 382.486 153.638 375.57 153.638ZM467.134 153.638C458.652 153.638 451.318 151.836 445.13 148.233C438.978 144.593 434.228 139.533 430.88 133.054C427.531 126.539 425.856 118.986 425.856 110.395C425.856 101.732 427.531 94.1611 430.88 87.682C434.228 81.1665 438.978 76.107 445.13 72.5034C451.318 68.8635 458.652 67.0435 467.134 67.0435C475.615 67.0435 482.931 68.8635 489.082 72.5034C495.27 76.107 500.039 81.1665 503.387 87.682C506.736 94.1611 508.411 101.732 508.411 110.395C508.411 118.986 506.736 126.539 503.387 133.054C500.039 139.533 495.27 144.593 489.082 148.233C482.931 151.836 475.615 153.638 467.134 153.638ZM467.243 135.62C471.101 135.62 474.322 134.528 476.907 132.344C479.491 130.124 481.439 127.103 482.749 123.281C484.096 119.459 484.769 115.109 484.769 110.232C484.769 105.354 484.096 101.004 482.749 97.1823C481.439 93.3604 479.491 90.3392 476.907 88.1188C474.322 85.8984 471.101 84.7883 467.243 84.7883C463.348 84.7883 460.072 85.8984 457.415 88.1188C454.794 90.3392 452.81 93.3604 451.464 97.1823C450.153 101.004 449.498 105.354 449.498 110.232C449.498 115.109 450.153 119.459 451.464 123.281C452.81 127.103 454.794 130.124 457.415 132.344C460.072 134.528 463.348 135.62 467.243 135.62ZM563.61 152H523.971V40.1806H563.938C575.186 40.1806 584.868 42.4192 592.985 46.8964C601.102 51.3371 607.344 57.7252 611.712 66.0607C616.117 74.3962 618.319 84.3697 618.319 95.9811C618.319 107.629 616.117 117.639 611.712 126.011C607.344 134.383 601.066 140.807 592.876 145.284C584.722 149.761 574.967 152 563.61 152ZM547.613 131.744H562.628C569.616 131.744 575.495 130.506 580.263 128.031C585.068 125.519 588.672 121.643 591.074 116.401C593.513 111.123 594.732 104.317 594.732 95.9811C594.732 87.7184 593.513 80.9663 591.074 75.7248C588.672 70.4833 585.086 66.6249 580.318 64.1497C575.549 61.6746 569.671 60.437 562.682 60.437H547.613V131.744ZM673.287 153.638C664.806 153.638 657.471 151.836 651.283 148.233C645.132 144.593 640.382 139.533 637.033 133.054C633.684 126.539 632.01 118.986 632.01 110.395C632.01 101.732 633.684 94.1611 637.033 87.682C640.382 81.1665 645.132 76.107 651.283 72.5034C657.471 68.8635 664.806 67.0435 673.287 67.0435C681.768 67.0435 689.084 68.8635 695.236 72.5034C701.424 76.107 706.192 81.1665 709.541 87.682C712.889 94.1611 714.564 101.732 714.564 110.395C714.564 118.986 712.889 126.539 709.541 133.054C706.192 139.533 701.424 144.593 695.236 148.233C689.084 151.836 681.768 153.638 673.287 153.638ZM673.396 135.62C677.254 135.62 680.476 134.528 683.06 132.344C685.644 130.124 687.592 127.103 688.902 123.281C690.249 119.459 690.922 115.109 690.922 110.232C690.922 105.354 690.249 101.004 688.902 97.1823C687.592 93.3604 685.644 90.3392 683.06 88.1188C680.476 85.8984 677.254 84.7883 673.396 84.7883C669.501 84.7883 666.225 85.8984 663.568 88.1188C660.947 90.3392 658.964 93.3604 657.617 97.1823C656.306 101.004 655.651 105.354 655.651 110.232C655.651 115.109 656.306 119.459 657.617 123.281C658.964 127.103 660.947 130.124 663.568 132.344C666.225 134.528 669.501 135.62 673.396 135.62ZM767.58 153.638C758.99 153.638 751.6 151.818 745.412 148.178C739.261 144.502 734.529 139.406 731.217 132.89C727.941 126.375 726.303 118.876 726.303 110.395C726.303 101.805 727.959 94.2703 731.271 87.7912C734.62 81.2757 739.37 76.198 745.522 72.558C751.673 68.8817 758.99 67.0435 767.471 67.0435C774.787 67.0435 781.193 68.3721 786.69 71.0292C792.186 73.6864 796.536 77.4174 799.739 82.2221C802.942 87.0268 804.707 92.6688 805.035 99.1479H783.086C782.467 94.9619 780.829 91.595 778.172 89.047C775.551 86.4626 772.112 85.1705 767.853 85.1705C764.249 85.1705 761.101 86.1532 758.407 88.1188C755.75 90.048 753.675 92.869 752.183 96.5817C750.69 100.294 749.944 104.79 749.944 110.068C749.944 115.418 750.672 119.968 752.128 123.718C753.621 127.467 755.714 130.324 758.407 132.29C761.101 134.255 764.249 135.238 767.853 135.238C770.51 135.238 772.894 134.692 775.005 133.6C777.153 132.508 778.918 130.925 780.301 128.85C781.721 126.739 782.649 124.209 783.086 121.261H805.035C804.671 127.667 802.924 133.309 799.793 138.186C796.699 143.028 792.422 146.813 786.963 149.543C781.503 152.273 775.042 153.638 767.58 153.638Z" fill="white"/>
<path d="M112.706 4.13611C133.695 8.97973 147.554 19.7433 151.859 24.5197C153.958 30.1706 151.523 34.0051 150.043 35.216L142.575 41.6741C135.512 45.9123 128.986 46.2487 125.825 44.9032L121.183 41.6741C116.07 38.7142 100.799 33.7225 80.6175 37.436C60.4357 41.1494 46.914 58.8959 42.6758 67.305C36.8634 76.6693 35.5449 90.0431 35.6122 95.5594C35.2893 103.309 37.3613 111.705 38.4376 114.934C45.7031 132.209 56.5339 142.314 61.0412 145.206C78.8012 159.092 98.3102 156.777 105.845 153.885C126.995 147.426 134.435 128.994 135.512 120.585C135.512 115.903 132.014 114.867 130.265 114.934H97.1665C82.1513 113.804 79.0702 103.43 79.4066 98.3848C79.0837 85.7914 91.112 81.8358 97.1665 81.4322H135.512V67.305C135.915 64.0759 137.126 62.4613 138.539 61.2504C139.952 60.0395 141.163 59.2323 144.19 59.0304C146.612 58.869 149.774 60.4432 151.052 61.2504L186.773 90.1103C190.971 94.4696 190.137 99.8648 189.195 102.018C174.826 142.058 149.572 167.272 138.741 174.874C119.689 190.535 92.0538 191.759 80.6175 190.414C47.8423 184.44 25.2522 161.688 18.0541 151.059C-5.51817 120.222 -1.05128 82.6431 4.1287 67.7086C9.61813 49.6258 21.485 34.8796 26.7323 29.7669C38.034 17.0121 54.314 9.51791 61.0412 7.36519C81.0615 -0.223144 103.827 2.05067 112.706 4.13611Z" fill="url(#paint0_linear_363_1549)"/>
<path d="M61.0413 7.36514C81.0615 -0.22303 103.826 2.05021 112.706 4.13564C133.695 8.97922 147.553 19.743 151.859 24.5194C153.958 30.1702 151.522 34.0047 150.042 35.2157L138.538 43.289C131.274 45.7106 128.986 46.2485 125.825 44.9032L121.183 41.6737C116.07 38.7137 100.799 33.7231 80.6175 37.4364C60.4359 41.1498 46.9134 58.8955 42.6751 67.3046C36.8628 76.6689 35.5444 90.0431 35.6116 95.5595C35.2888 103.309 37.3604 111.704 38.4368 114.933C45.7023 132.209 56.534 142.314 61.0413 145.207C78.801 159.091 98.3094 156.777 105.844 153.885C105.944 153.854 106.043 153.82 106.143 153.789L105.643 154.49C88.3538 162.832 53.5737 172.856 11.9993 139.152L9.03057 136.382C-4.12003 109.144 -0.250874 80.3346 4.12823 67.7089C9.61767 49.626 21.4845 34.8792 26.7317 29.7665C38.0335 17.0117 54.3141 9.51784 61.0413 7.36514Z" fill="url(#paint1_linear_363_1549)"/>
<defs>
<linearGradient id="paint0_linear_363_1549" x1="157.646" y1="144.239" x2="95.1483" y2="96.3667" gradientUnits="userSpaceOnUse">
<stop offset="0.118397" stop-color="#00A8ED"/>
<stop offset="0.677183" stop-color="#00DBF3"/>
</linearGradient>
<linearGradient id="paint1_linear_363_1549" x1="76.3379" y1="2.11377" x2="76.3379" y2="162.653" gradientUnits="userSpaceOnUse">
<stop stop-color="#00EEFF"/>
<stop offset="1" stop-color="#00ADE5"/>
</linearGradient>
</defs>
</svg>
