<svg width="16" height="17" viewBox="0 0 16 17" fill="none" xmlns="http://www.w3.org/2000/svg">
<path d="M2.03668 9.16665H3.38001C3.54154 10.2765 4.09726 11.2911 4.9455 12.0248C5.79374 12.7586 6.8778 13.1624 7.99934 13.1624C9.12089 13.1624 10.2049 12.7586 11.0532 12.0248C11.9014 11.2911 12.4571 10.2765 12.6187 9.16665H13.9627C13.7983 10.6332 13.0993 11.9878 11.9992 12.9715C10.8991 13.9552 9.4751 14.499 7.99934 14.499C6.52359 14.499 5.09959 13.9552 3.99949 12.9715C2.8994 11.9878 2.20037 10.6332 2.03601 9.16665H2.03668ZM2.03668 7.83332C2.20104 6.36675 2.90007 5.01217 4.00016 4.02848C5.10025 3.04479 6.52426 2.50098 8.00001 2.50098C9.47576 2.50098 10.8998 3.04479 11.9999 4.02848C13.1 5.01217 13.799 6.36675 13.9633 7.83332H12.62C12.4585 6.72347 11.9028 5.70887 11.0545 4.97514C10.2063 4.24142 9.12222 3.83762 8.00068 3.83762C6.87913 3.83762 5.79507 4.24142 4.94683 4.97514C4.09859 5.70887 3.54287 6.72347 3.38134 7.83332H2.03668Z" fill="#9ACCEE"/>
</svg>
