<svg width="16" height="17" viewBox="0 0 16 17" fill="none" xmlns="http://www.w3.org/2000/svg">
<path d="M14 5.83301V14.495C14.0006 14.5826 13.984 14.6694 13.951 14.7505C13.9181 14.8316 13.8695 14.9054 13.808 14.9678C13.7466 15.0301 13.6734 15.0797 13.5928 15.1138C13.5121 15.1479 13.4255 15.1657 13.338 15.1663H2.662C2.48654 15.1663 2.31826 15.0967 2.19413 14.9727C2.07 14.8487 2.00018 14.6805 2 14.505V2.49434C2 2.13634 2.29933 1.83301 2.668 1.83301H9.998L14 5.83301ZM12.6667 6.49967H9.33333V3.16634H3.33333V13.833H12.6667V6.49967ZM5.33333 5.16634H7.33333V6.49967H5.33333V5.16634ZM5.33333 7.83301H10.6667V9.16634H5.33333V7.83301ZM5.33333 10.4997H10.6667V11.833H5.33333V10.4997Z" fill="#9ACCEE"/>
</svg>
