<svg width="16" height="17" viewBox="0 0 16 17" fill="none" xmlns="http://www.w3.org/2000/svg">
<path d="M1.99998 2.5H14C14.1768 2.5 14.3464 2.57024 14.4714 2.69526C14.5964 2.82029 14.6666 2.98986 14.6666 3.16667V13.8333C14.6666 14.0101 14.5964 14.1797 14.4714 14.3047C14.3464 14.4298 14.1768 14.5 14 14.5H1.99998C1.82317 14.5 1.6536 14.4298 1.52858 14.3047C1.40355 14.1797 1.33331 14.0101 1.33331 13.8333V3.16667C1.33331 2.98986 1.40355 2.82029 1.52858 2.69526C1.6536 2.57024 1.82317 2.5 1.99998 2.5ZM13.3333 9.83333H11.056C10.7966 10.4281 10.3693 10.9342 9.82644 11.2897C9.28361 11.6452 8.64884 11.8345 7.99998 11.8345C7.35112 11.8345 6.71635 11.6452 6.17352 11.2897C5.63068 10.9342 5.20337 10.4281 4.94398 9.83333H2.66665V13.1667H13.3333V9.83333ZM13.3333 8.5V3.83333H2.66665V8.5H5.99998C5.99998 9.03043 6.21069 9.53914 6.58577 9.91421C6.96084 10.2893 7.46955 10.5 7.99998 10.5C8.53041 10.5 9.03912 10.2893 9.41419 9.91421C9.78927 9.53914 9.99998 9.03043 9.99998 8.5H13.3333Z" fill="#9ACCEE"/>
</svg>
