<svg width="16" height="17" viewBox="0 0 16 17" fill="none" xmlns="http://www.w3.org/2000/svg">
<path d="M3.99998 13.1663H1.99998C1.82317 13.1663 1.6536 13.0961 1.52858 12.9711C1.40355 12.8461 1.33331 12.6765 1.33331 12.4997V5.83301C1.33331 5.6562 1.40355 5.48663 1.52858 5.3616C1.6536 5.23658 1.82317 5.16634 1.99998 5.16634H3.99998V2.49967C3.99998 2.32286 4.07022 2.15329 4.19524 2.02827C4.32027 1.90325 4.48984 1.83301 4.66665 1.83301H11.3333C11.5101 1.83301 11.6797 1.90325 11.8047 2.02827C11.9297 2.15329 12 2.32286 12 2.49967V5.16634H14C14.1768 5.16634 14.3464 5.23658 14.4714 5.3616C14.5964 5.48663 14.6666 5.6562 14.6666 5.83301V12.4997C14.6666 12.6765 14.5964 12.8461 14.4714 12.9711C14.3464 13.0961 14.1768 13.1663 14 13.1663H12V14.4997C12 14.6765 11.9297 14.8461 11.8047 14.9711C11.6797 15.0961 11.5101 15.1663 11.3333 15.1663H4.66665C4.48984 15.1663 4.32027 15.0961 4.19524 14.9711C4.07022 14.8461 3.99998 14.6765 3.99998 14.4997V13.1663ZM3.99998 11.833V11.1663C3.99998 10.9895 4.07022 10.82 4.19524 10.6949C4.32027 10.5699 4.48984 10.4997 4.66665 10.4997H11.3333C11.5101 10.4997 11.6797 10.5699 11.8047 10.6949C11.9297 10.82 12 10.9895 12 11.1663V11.833H13.3333V6.49967H2.66665V11.833H3.99998ZM5.33331 3.16634V5.16634H10.6666V3.16634H5.33331ZM5.33331 11.833V13.833H10.6666V11.833H5.33331ZM3.33331 7.16634H5.33331V8.49967H3.33331V7.16634Z" fill="#9ACCEE"/>
</svg>
