<svg width="43" height="42" viewBox="0 0 43 42" fill="none" xmlns="http://www.w3.org/2000/svg">
<path d="M25.0061 0.448648C29.6629 1.5233 32.7376 3.9114 33.6929 4.97112C34.1585 6.22488 33.6182 7.07564 33.2899 7.3443L31.6331 8.77717C30.0659 9.71748 28.6181 9.79211 27.9166 9.4936L26.8867 8.77717C25.7524 8.12044 22.3643 7.01295 17.8866 7.83685C13.4089 8.66075 10.4088 12.5981 9.46849 14.4638C8.17891 16.5415 7.88637 19.5087 7.90129 20.7326C7.82965 22.4521 8.28936 24.3148 8.52817 25.0312C10.1401 28.8641 12.5432 31.106 13.5432 31.7478C17.4836 34.8284 21.812 34.315 23.4837 33.6732C28.1763 32.2403 29.8271 28.1507 30.0659 26.285C30.0659 25.2461 29.2898 25.0163 28.9017 25.0312H21.5583C18.2269 24.7805 17.5433 22.4789 17.6179 21.3595C17.5463 18.5654 20.215 17.6878 21.5583 17.5982H30.0659V14.4638C30.1555 13.7474 30.4241 13.3892 30.7376 13.1205C31.051 12.8519 31.3197 12.6728 31.9913 12.628C32.5286 12.5922 33.2301 12.9414 33.5137 13.1205L41.4393 19.5236C42.3706 20.4908 42.1855 21.6879 41.9766 22.1655C38.7885 31.0492 33.1854 36.6434 30.7823 38.33C26.5554 41.8047 20.4239 42.0763 17.8866 41.7778C10.6148 40.4524 5.60275 35.4046 4.0057 33.0463C-1.22425 26.2044 -0.233185 17.8669 0.916091 14.5534C2.13403 10.5414 4.76691 7.26967 5.93111 6.13532C8.43863 3.30542 12.0506 1.6427 13.5432 1.16508C17.9851 -0.518536 23.0359 -0.0140481 25.0061 0.448648Z" fill="url(#paint0_linear_272_7740)"/>
<path d="M13.5429 1.16623C17.9847 -0.517339 23.0356 -0.0132504 25.0058 0.449438C29.6621 1.52397 32.7368 3.912 33.6924 4.9719C34.158 6.22558 33.6184 7.07721 33.29 7.34592L30.7373 9.13694C29.1255 9.67423 28.6175 9.79287 27.916 9.49436L26.8867 8.77854C25.7524 8.12183 22.3642 7.01434 17.8867 7.83811C13.409 8.66201 10.4081 12.5994 9.46775 14.4651C8.17836 16.5426 7.88646 19.5096 7.90135 20.7336C7.8297 22.4531 8.28949 24.316 8.5283 25.0324C10.1403 28.8653 12.5429 31.1074 13.5429 31.7492C17.4833 34.8298 21.8117 34.3158 23.4834 33.674C23.5055 33.6673 23.5268 33.6584 23.5488 33.6516L23.4385 33.8078C19.6025 35.6586 11.8861 37.8823 2.66209 30.4045L2.00388 29.7912C-0.913959 23.7479 -0.0555898 17.3563 0.915994 14.5549C2.13382 10.5432 4.76628 7.27156 5.93064 6.13694C8.43815 3.30703 12.0504 1.64385 13.5429 1.16623Z" fill="url(#paint1_linear_272_7740)"/>
<defs>
<linearGradient id="paint0_linear_272_7740" x1="34.9767" y1="31.5331" x2="21.1105" y2="20.9117" gradientUnits="userSpaceOnUse">
<stop offset="0.118397" stop-color="#00A8ED"/>
<stop offset="0.677183" stop-color="#00DBF3"/>
</linearGradient>
<linearGradient id="paint1_linear_272_7740" x1="16.937" y1="0.000976562" x2="16.937" y2="35.6186" gradientUnits="userSpaceOnUse">
<stop stop-color="#00EEFF"/>
<stop offset="1" stop-color="#00ADE5"/>
</linearGradient>
</defs>
</svg>
